<svg xmlns="http://www.w3.org/2000/svg" width="36.837" height="74.377" viewBox="0 0 36.837 74.377">
  <path id="image_2_" data-name="image (2)" d="M16.685,2.634a.943.943,0,0,1,1.61-.982Zm.8,71.5.555.762-1.5,1.091V74.136ZM25.956,66.8a.943.943,0,1,1,1.111,1.524Zm-9.409-2.774a.943.943,0,1,1,1.886,0ZM18.295,1.652c5.486,8.989,9.5,21.965,10.141,35.3s-2.075,27.162-10.2,37.754l-1.5-1.148c7.765-10.125,10.441-23.457,9.81-36.515S21.989,11.326,16.685,2.634Zm-1.36,71.722L25.956,66.8l1.111,1.524L18.045,74.9Zm-.388.762V64.028h1.886V74.136Z" transform="translate(10.441 -6.787) rotate(20)" fill="#7a7a7a"/>
</svg>
