<svg xmlns="http://www.w3.org/2000/svg" width="41.921" height="83.495" viewBox="0 0 41.921 83.495">
  <path id="image_1_" data-name="image (1)" d="M79.869,22.492a.8.8,0,0,0,1.261-.984ZM2,12.933l-.678-.424L.7,13.5l1.148.219ZM7.678,5.357a.8.8,0,0,0-1.357-.848ZM12.35,15.719a.8.8,0,1,0,.3-1.572Zm68.78,5.789C64.868.672,30.393-7.464,1.548,12.272l.9,1.321c28.155-19.264,61.68-11.264,77.418,8.9ZM2.678,13.357l5-8L6.322,4.509l-5,8Zm-.828.362,10.5,2,.3-1.572-10.5-2Z" transform="matrix(-0.259, -0.966, 0.966, -0.259, 20.08, 84.431)" fill="#7a7a7a"/>
</svg>
