<svg xmlns="http://www.w3.org/2000/svg" width="18" height="17.55" viewBox="0 0 18 17.55">
  <path id="github-brands" d="M6.021,22.131c0,.073-.083.131-.189.131s-.2-.047-.2-.131S5.712,22,5.817,22,6.021,22.048,6.021,22.131Zm-1.129-.163c-.025.073.047.156.156.178a.17.17,0,0,0,.225-.073c.022-.073-.047-.156-.156-.189a.186.186,0,0,0-.225.083Zm1.6-.062c-.105.025-.178.094-.167.178s.105.12.214.094.178-.094.167-.167S6.6,21.9,6.5,21.906ZM8.884,8A8.7,8.7,0,0,0,0,16.855a9.1,9.1,0,0,0,6.151,8.681c.465.083.628-.2.628-.439s-.011-1.466-.011-2.228c0,0-2.54.544-3.074-1.081,0,0-.414-1.056-1.009-1.328,0,0-.831-.57.058-.559a1.916,1.916,0,0,1,1.4.936,1.918,1.918,0,0,0,2.646.758,2.017,2.017,0,0,1,.581-1.223c-2.029-.225-4.075-.519-4.075-4.01a2.75,2.75,0,0,1,.856-2.137,3.429,3.429,0,0,1,.094-2.464c.758-.236,2.5.98,2.5.98a8.573,8.573,0,0,1,4.558,0s1.746-1.219,2.5-.98a3.427,3.427,0,0,1,.094,2.464,2.821,2.821,0,0,1,.936,2.137c0,3.5-2.137,3.781-4.166,4.01a2.146,2.146,0,0,1,.617,1.684c0,1.223-.011,2.736-.011,3.034,0,.236.167.523.628.439A9.015,9.015,0,0,0,18,16.855,8.9,8.9,0,0,0,8.884,8ZM3.527,20.517c-.047.036-.036.12.025.189s.142.083.189.036.036-.12-.025-.189S3.575,20.469,3.527,20.517Zm-.392-.294c-.025.047.011.105.083.142a.108.108,0,0,0,.156-.025c.025-.047-.011-.105-.083-.142S3.161,20.186,3.135,20.223Zm1.176,1.292c-.058.047-.036.156.047.225s.189.094.236.036.025-.156-.047-.225S4.358,21.456,4.311,21.515ZM3.9,20.981c-.058.036-.058.131,0,.214s.156.12.2.083a.166.166,0,0,0,0-.225C4.05,20.97,3.956,20.934,3.9,20.981Z" transform="translate(0 -8)" fill="#333"/>
</svg>
