<svg xmlns="http://www.w3.org/2000/svg" width="41.66" height="56.721" viewBox="0 0 41.66 56.721">
  <path id="image_3_" data-name="image (3)" d="M19.991.074a1.017,1.017,0,1,1,.76,1.887Zm20.092,49.27.69-.748.887.818-.956.736ZM32.437,56.51A1.017,1.017,0,1,1,31.2,54.9Zm-1.31-14.048a1.017,1.017,0,1,1,1.38-1.5ZM20.751,1.961C8.936,6.722.961,17.5,2.154,27.274c1.173,9.607,11.4,19.155,38,21.055l-.145,2.03C13.2,48.444,1.5,38.692.135,27.521-1.21,16.513,7.666,5.04,19.991.074ZM40.7,50.151,32.437,56.51,31.2,54.9l8.267-6.359Zm-1.31-.059-8.267-7.631,1.38-1.5,8.267,7.63Z" fill="#7a7a7a"/>
</svg>
