<svg xmlns="http://www.w3.org/2000/svg" width="54.921" height="65.57" viewBox="0 0 54.921 65.57">
  <path id="image_3_" data-name="image (3)" d="M19.991,56.647a1.017,1.017,0,1,0,.76-1.887ZM40.083,7.376l.69.748.887-.818L40.7,6.57ZM32.437.211A1.017,1.017,0,1,0,31.2,1.824Zm-1.31,14.048a1.017,1.017,0,1,0,1.38,1.5Zm-10.375,40.5C8.936,50,.961,39.217,2.154,29.446c1.173-9.607,11.4-19.155,38-21.055l-.145-2.03C13.2,8.276,1.5,18.029.135,29.2-1.21,40.208,7.666,51.681,19.991,56.647ZM40.7,6.57,32.437.211,31.2,1.824l8.267,6.359Zm-1.31.059-8.267,7.631,1.38,1.5,8.267-7.63Z" transform="matrix(-0.966, 0.259, -0.259, -0.966, 54.921, 54.788)" fill="#7a7a7a"/>
</svg>
